<svg width="7" height="29" viewBox="0 0 7 29" fill="none" xmlns="http://www.w3.org/2000/svg">
<path d="M3.5 11.3578C5.425 11.3578 7 12.9328 7 14.8578C7 16.7828 5.425 18.3578 3.5 18.3578C1.575 18.3578 0 16.7828 0 14.8578C0 12.9328 1.575 11.3578 3.5 11.3578ZM3.5 0.857788C5.425 0.857788 7 2.43279 7 4.35779C7 6.28279 5.425 7.85779 3.5 7.85779C1.575 7.85779 0 6.28279 0 4.35779C0 2.43279 1.575 0.857788 3.5 0.857788ZM3.5 21.8578C5.425 21.8578 7 23.4328 7 25.3578C7 27.2828 5.425 28.8578 3.5 28.8578C1.575 28.8578 0 27.2828 0 25.3578C0 23.4328 1.575 21.8578 3.5 21.8578Z" fill="white"/>
</svg>
